<?xml version="1.0" standalone="no"?>
<!DOCTYPE svg PUBLIC "-//W3C//DTD SVG 20010904//EN"
 "http://www.w3.org/TR/2001/REC-SVG-20010904/DTD/svg10.dtd">
<svg version="1.0" xmlns="http://www.w3.org/2000/svg"
 width="920.000000pt" height="1129.000000pt" viewBox="0 0 920.000000 1129.000000"
 preserveAspectRatio="xMidYMid meet">
<g transform="translate(0.000000,1129.000000) scale(0.100000,-0.100000)"
fill="#000000" stroke="none">
<path d="M7145 10866 c-374 -54 -782 -206 -1245 -464 -702 -391 -1484 -1011
-1794 -1421 -256 -340 -414 -724 -496 -1206 -27 -159 -45 -317 -80 -690 -46
-498 -76 -687 -141 -886 -76 -236 -167 -379 -369 -580 -231 -230 -479 -437
-820 -683 -516 -373 -632 -465 -920 -732 -335 -309 -495 -537 -599 -849 -56
-171 -75 -304 -68 -490 6 -165 21 -248 72 -401 131 -393 421 -721 798 -899
510 -242 1061 -176 1522 183 108 83 331 310 476 482 141 167 243 299 449 580
399 541 536 709 710 864 117 104 438 335 920 661 943 638 1310 916 1640 1245
421 418 756 937 1001 1547 415 1035 512 2210 242 2932 -62 167 -120 273 -224
411 -157 207 -350 329 -613 386 -95 21 -346 27 -461 10z m-5645 -7366 c25
-158 84 -348 141 -463 l29 -57 29 33 c16 18 56 46 88 63 51 26 68 29 148 29
76 0 99 -4 146 -26 106 -50 172 -132 199 -248 25 -107 -13 -237 -92 -318 l-41
-42 59 -37 c86 -55 250 -130 346 -158 85 -24 180 -41 303 -52 l69 -6 -59 -54
c-170 -154 -361 -264 -525 -304 -351 -85 -726 32 -1013 314 -207 204 -342 578
-307 849 35 266 150 484 384 725 l71 73 6 -123 c3 -68 12 -157 19 -198z"/>
</g>
</svg>
